<svg width="24" height="24" viewBox="0 0 24 24" fill="none" xmlns="http://www.w3.org/2000/svg">
<path d="M9.94 4C9.17785 4 8.56 4.61785 8.56 5.38C7.73 5.05 6.84 4.88 5.95 4.88C4.16 4.88 2.37 5.56 1 6.93L4.33 10.26H5.44V11.37C6.3 12.23 7.42 12.68 8.55 12.73V15H6.56C6.00772 15 5.56 15.4477 5.56 16V18C5.56 19.1 6.46 20 7.56 20H17.56C19.22 20 20.56 18.66 20.56 17V6C20.56 4.89543 19.6646 4 18.56 4H9.94ZM7.45 10.41V8.26H5.17L4.13 7.22C4.7 7 5.32 6.88 5.95 6.88C7.29 6.88 8.54 7.4 9.49 8.34L10.9 9.75L10.7 9.95C10.19 10.46 9.51 10.75 8.78 10.75C8.31 10.75 7.85 10.63 7.45 10.41ZM18.56 17C18.56 17.55 18.11 18 17.56 18C17.01 18 16.56 17.55 16.56 17V16C16.56 15.4477 16.1123 15 15.56 15H10.56V12.41C11.13 12.18 11.66 11.84 12.12 11.38L12.32 11.18L15.15 14H16.56V12.59L10.56 6.62V6H18.56V17Z" fill="#46464F"/>
</svg>
