<svg width="48" height="47" viewBox="0 0 48 47" fill="none" xmlns="http://www.w3.org/2000/svg">
<g clip-path="url(#clip0_3118_11208)">
<path fill-rule="evenodd" clip-rule="evenodd" d="M23.5034 10.5825C23.7446 10.5749 23.9847 10.5684 24.2289 10.5684C34.7534 10.5684 43.2871 18.7223 43.2871 28.7832C43.2871 38.8441 34.7554 47 24.2298 47C13.7043 47 5.17261 38.8441 5.17261 28.7832C5.17261 28.5518 5.17751 28.3204 5.1873 28.0899C5.55592 37.0858 13.067 44.2698 22.8025 44.2698C32.5379 44.2698 40.4304 36.5016 40.4304 27.4191C40.4304 18.3365 32.9144 10.9353 23.5034 10.5825Z" fill="white"/>
<path fill-rule="evenodd" clip-rule="evenodd" d="M41.6793 19.8203V16.486C41.6793 16.486 41.9165 16.4202 44.6594 15.3778L44.5839 18.1513L44.5418 21.0762L43.5458 21.4046L42.4753 21.8345L40.896 22.5551L39.2775 23.3737L37.8286 24.2147L36.2464 25.3258L34.9729 26.2666L33.9064 27.1435L32.9525 27.9648L31.9752 28.8096L30.7566 29.9169L29.795 30.8502L28.1265 32.5164C27.6089 33.0498 26.9481 33.747 26.2051 34.5861C25.3179 35.5862 24.6827 36.369 24.2101 36.9532C23.7572 37.512 23.0485 38.3908 22.1701 39.5856C21.5937 40.3693 21.1182 41.0532 20.7585 41.5838L19.286 39.547L20.3938 37.9627L22.2084 35.7292L24.0503 33.5127L26.2139 31.0233L28.1353 29.057L30.3792 26.912C30.7214 26.6072 31.089 26.2948 31.484 25.9806C31.8017 25.7285 32.1144 25.4914 32.4192 25.2713C32.7404 25.0242 33.0615 24.7774 33.3825 24.5307C33.6396 24.3331 33.8966 24.1357 34.1534 23.9382C34.525 23.6559 34.9181 23.368 35.3318 23.0801C35.7062 22.8186 36.0719 22.5749 36.4316 22.3454C36.7816 22.1252 37.1522 21.9022 37.5424 21.6821C38.0845 21.3754 38.6119 21.1026 39.1177 20.8608C39.5402 20.6604 39.9941 20.4609 40.4764 20.2671C40.8911 20.1006 41.293 19.9529 41.6793 19.8203ZM17.2176 25.6843L20.9045 31.9359H20.9055L19.7056 33.556L14.3639 24.7463L15.5227 22.8102L17.2176 25.6843Z" fill="white"/>
<path d="M41.6793 16.486L41.6131 16.2528L41.4344 16.3024V16.486H41.6793ZM41.6793 19.8203L41.7596 20.0491L41.9242 19.9926V19.8203H41.6793ZM44.6594 15.3778L44.9042 15.3843L44.9141 15.0215L44.5716 15.1516L44.6594 15.3778ZM44.5839 18.1513L44.3391 18.1448L44.3391 18.1478L44.5839 18.1513ZM44.5418 21.0762L44.6192 21.3061L44.7842 21.2517L44.7867 21.0797L44.5418 21.0762ZM43.5458 21.4046L43.4684 21.1747L43.4609 21.1772L43.4537 21.1801L43.5458 21.4046ZM42.4753 21.8345L42.3832 21.6101L42.3779 21.6121L42.3727 21.6145L42.4753 21.8345ZM40.896 22.5551L40.7935 22.3352L40.7889 22.3373L40.7845 22.3394L40.896 22.5551ZM39.2775 23.3737L39.1661 23.158L39.1597 23.1612L39.1536 23.1647L39.2775 23.3737ZM37.8286 24.2147L37.7047 24.0058L37.6955 24.0111L37.6869 24.0172L37.8286 24.2147ZM36.2464 25.3258L36.1046 25.1282L36.0999 25.1317L36.2464 25.3258ZM34.973 26.2666L34.8265 26.0725L34.8214 26.0763L34.8165 26.0803L34.973 26.2666ZM33.9064 27.1435L33.7498 26.9571L33.7456 26.9607L33.9064 27.1435ZM31.9752 28.8096L31.814 28.6271L31.8095 28.6312L31.9752 28.8096ZM30.7567 29.9169L30.591 29.7385L30.588 29.7412L30.5852 29.744L30.7567 29.9169ZM29.795 30.8502L29.6235 30.6773L29.621 30.6797L29.795 30.8502ZM28.1265 32.5164L27.9525 32.3459L27.9498 32.3486L28.1265 32.5164ZM20.7585 41.5838L20.5593 41.7248L20.765 42.0092L20.9619 41.7188L20.7585 41.5838ZM19.2861 39.547L19.0847 39.4092L18.9867 39.5493L19.0869 39.6879L19.2861 39.547ZM20.3938 37.9627L20.2029 37.8109L20.1974 37.8177L20.1924 37.8249L20.3938 37.9627ZM22.2084 35.7292L22.0192 35.5754L22.0175 35.5774L22.2084 35.7292ZM24.0504 33.5127L23.8646 33.3547L23.8612 33.3588L24.0504 33.5127ZM26.2139 31.0233L26.0379 30.855L26.0329 30.86L26.0282 30.8654L26.2139 31.0233ZM28.1353 29.057L27.9652 28.8828L27.9621 28.8857L27.9592 28.8887L28.1353 29.057ZM30.3793 26.912L30.2154 26.732L30.2121 26.7349L30.2091 26.7378L30.3793 26.912ZM32.4193 25.2713L32.5637 25.467L32.5667 25.4648L32.5696 25.4625L32.4193 25.2713ZM34.1534 23.9382L34.0043 23.746L34.0031 23.7469L34.1534 23.9382ZM36.4317 22.3454L36.3003 22.1409L36.2989 22.1418L36.4317 22.3454ZM39.1177 20.8608L39.0119 20.6423L39.0112 20.6426L39.1177 20.8608ZM20.9046 31.9359L20.693 32.058L20.7639 32.1782H20.9046V31.9359ZM20.9055 31.9359L21.1031 32.0791L21.3886 31.6936H20.9055V31.9359ZM19.7056 33.556L19.4956 33.6806L19.6853 33.9934L19.9032 33.6992L19.7056 33.556ZM14.3639 24.7463L14.1532 24.6229L14.0789 24.7471L14.1539 24.8709L14.3639 24.7463ZM15.5227 22.8102L15.7342 22.6881L15.5242 22.332L15.3119 22.6867L15.5227 22.8102ZM41.4344 16.486V19.8203H41.9242V16.486H41.4344ZM44.5716 15.1516C43.2006 15.6727 42.4567 15.9493 42.056 16.0956C41.8556 16.1687 41.7417 16.2089 41.6786 16.2307C41.647 16.2416 41.6286 16.2477 41.6186 16.2509C41.6137 16.2525 41.6111 16.2534 41.6102 16.2536C41.6098 16.2537 41.6098 16.2538 41.6102 16.2536C41.6105 16.2535 41.6109 16.2534 41.6114 16.2533C41.6117 16.2532 41.6119 16.2531 41.6122 16.2531C41.612 16.2531 41.6123 16.253 41.6122 16.2531C41.6122 16.2531 41.6131 16.2528 41.6131 16.2528C41.6132 16.2527 41.6131 16.2528 41.6793 16.486C41.7455 16.7193 41.7456 16.7193 41.7457 16.7193C41.7456 16.7193 41.7458 16.7193 41.7457 16.7193C41.7459 16.7192 41.7463 16.7191 41.7465 16.719C41.7468 16.7189 41.7472 16.7188 41.7475 16.7187C41.7482 16.7185 41.749 16.7183 41.7497 16.7181C41.7513 16.7177 41.753 16.7171 41.755 16.7165C41.7589 16.7153 41.7641 16.7137 41.771 16.7114C41.7848 16.707 41.8064 16.6998 41.8399 16.6882C41.9069 16.6651 42.0237 16.6237 42.2255 16.5501C42.6292 16.4028 43.3754 16.1253 44.7472 15.6039L44.5716 15.1516ZM44.8287 18.1578L44.9042 15.3843L44.4146 15.3713L44.3391 18.1448L44.8287 18.1578ZM44.7867 21.0797L44.8288 18.1547L44.3391 18.1478L44.2969 21.0728L44.7867 21.0797ZM43.6232 21.6344L44.6192 21.3061L44.4644 20.8464L43.4684 21.1747L43.6232 21.6344ZM42.5674 22.059L43.6379 21.6291L43.4537 21.1801L42.3832 21.6101L42.5674 22.059ZM40.9986 22.7752L42.5779 22.0545L42.3727 21.6145L40.7935 22.3352L40.9986 22.7752ZM39.389 23.5894L41.0075 22.7709L40.7845 22.3394L39.1661 23.158L39.389 23.5894ZM37.9526 24.4237L39.4015 23.5826L39.1536 23.1647L37.7047 24.0058L37.9526 24.4237ZM36.3882 25.5234L37.9704 24.4123L37.6869 24.0172L36.1046 25.1282L36.3882 25.5234ZM35.1195 26.4608L36.3929 25.5199L36.0999 25.1317L34.8265 26.0725L35.1195 26.4608ZM34.0629 27.3298L35.1295 26.4529L34.8165 26.0803L33.7498 26.9571L34.0629 27.3298ZM33.1134 28.1475L34.0672 27.3262L33.7456 26.9607L32.7918 27.782L33.1134 28.1475ZM32.1364 28.9921L33.1134 28.1475L32.7918 27.782L31.814 28.6271L32.1364 28.9921ZM30.9224 30.0954L32.1409 28.988L31.8095 28.6312L30.591 29.7385L30.9224 30.0954ZM29.9665 31.0232L30.9282 30.0899L30.5852 29.744L29.6235 30.6773L29.9665 31.0232ZM28.3005 32.6869L29.969 31.0207L29.621 30.6797L27.9525 32.3459L28.3005 32.6869ZM26.3891 34.7459C27.1291 33.9103 27.7873 33.2158 28.3032 32.6841L27.9498 32.3486C27.4304 32.8839 26.7671 33.5838 26.0209 34.4265L26.3891 34.7459ZM24.4013 37.1047C24.8731 36.5213 25.5057 35.7418 26.3891 34.7459L26.0209 34.4265C25.13 35.4308 24.4921 36.2168 24.0189 36.8019L24.4013 37.1047ZM22.3682 39.7281C23.2431 38.5379 23.9492 37.6625 24.4013 37.1047L24.0189 36.8019C23.5652 37.3617 22.8538 38.2437 21.9721 39.4431L22.3682 39.7281ZM20.9619 41.7188C21.3203 41.1902 21.7939 40.5089 22.3682 39.7281L21.9721 39.4431C21.3935 40.2297 20.9163 40.9163 20.5551 41.4489L20.9619 41.7188ZM19.0869 39.6879L20.5593 41.7248L20.9577 41.4429L19.4853 39.4061L19.0869 39.6879ZM20.1924 37.8249L19.0847 39.4092L19.4875 39.6848L20.5952 38.1005L20.1924 37.8249ZM22.0175 35.5774L20.2029 37.8109L20.5847 38.1145L22.3993 35.881L22.0175 35.5774ZM23.8612 33.3588L22.0192 35.5754L22.3976 35.8831L24.2395 33.6665L23.8612 33.3588ZM26.0282 30.8654L23.8646 33.3547L24.236 33.6706L26.3996 31.1813L26.0282 30.8654ZM27.9592 28.8887L26.0379 30.855L26.39 31.1917L28.3114 29.2254L27.9592 28.8887ZM30.2091 26.7378L27.9652 28.8828L28.3055 29.2313L30.5494 27.0862L30.2091 26.7378ZM31.3308 25.7917C30.9318 26.109 30.5605 26.4245 30.2154 26.732L30.5432 27.0921C30.8823 26.7899 31.2464 26.4805 31.6375 26.1694L31.3308 25.7917ZM32.2749 25.0756C31.9668 25.2981 31.6511 25.5374 31.3308 25.7917L31.6375 26.1694C31.9524 25.9195 32.262 25.6848 32.5637 25.467L32.2749 25.0756ZM33.2323 24.3394C32.9113 24.5861 32.5901 24.8329 32.2689 25.08L32.5696 25.4625C32.8907 25.2155 33.2118 24.9687 33.5328 24.722L33.2323 24.3394ZM34.0031 23.7469C33.7464 23.9444 33.4894 24.1418 33.2323 24.3394L33.5328 24.722C33.7899 24.5245 34.0469 24.327 34.3038 24.1294L34.0031 23.7469ZM35.1909 22.882C34.7741 23.1721 34.3782 23.462 34.0043 23.746L34.3026 24.1303C34.6718 23.8499 35.0621 23.564 35.4727 23.2783L35.1909 22.882ZM36.2989 22.1418C35.9363 22.3732 35.5682 22.6185 35.1909 22.882L35.4727 23.2783C35.8443 23.0187 36.2075 22.7767 36.5644 22.5489L36.2989 22.1418ZM37.4211 21.4717C37.027 21.694 36.6531 21.919 36.3003 22.1409L36.5631 22.5498C36.9102 22.3314 37.2774 22.1105 37.6637 21.8925L37.4211 21.4717ZM39.0112 20.6426C38.5004 20.8868 37.9682 21.1621 37.4211 21.4717L37.6637 21.8925C38.2007 21.5887 38.7234 21.3184 39.2243 21.0789L39.0112 20.6426ZM40.3843 20.0427C39.8974 20.2383 39.4389 20.4398 39.0119 20.6423L39.2236 21.0793C39.6416 20.881 40.0909 20.6835 40.5686 20.4916L40.3843 20.0427ZM41.599 19.5914C41.2092 19.7253 40.8033 19.8744 40.3843 20.0427L40.5686 20.4916C40.9789 20.3269 41.3768 20.1806 41.7596 20.0491L41.599 19.5914ZM21.1161 31.8139L17.4292 25.5622L17.0061 25.8064L20.693 32.058L21.1161 31.8139ZM20.9055 31.6936H20.9046V32.1782H20.9055V31.6936ZM19.9032 33.6992L21.1031 32.0791L20.708 31.7927L19.5081 33.4128L19.9032 33.6992ZM14.1539 24.8709L19.4956 33.6806L19.9157 33.4314L14.5739 24.6217L14.1539 24.8709ZM15.3119 22.6867L14.1532 24.6229L14.5747 24.8697L15.7334 22.9336L15.3119 22.6867ZM17.4292 25.5622L15.7342 22.6881L15.3111 22.9322L17.0061 25.8064L17.4292 25.5622Z" fill="white"/>
<path d="M47.4484 17.2171L47.5554 16.9991L47.466 16.9562L47.3717 16.9869L47.4484 17.2171ZM44.5839 18.1512L44.5073 17.9212L44.3416 17.9752L44.3391 18.1478L44.5839 18.1512ZM47.4503 17.218L47.6952 17.2154L47.6936 17.0655L47.5573 17L47.4503 17.218ZM47.5102 22.3708L47.5852 22.6014L47.7573 22.5466L47.755 22.3678L47.5102 22.3708ZM23.6504 41.7146L23.4486 41.8518L23.6443 42.1333L23.8481 41.8576L23.6504 41.7146ZM22.1711 39.5865L21.9732 39.4438L21.8711 39.5825L21.9693 39.7238L22.1711 39.5865ZM29.1578 31.4608L28.9872 31.2869L28.9835 31.2905L29.1578 31.4608ZM29.4636 31.1682L29.6335 31.3427L29.6339 31.3423L29.4636 31.1682ZM44.5418 21.0762L44.6122 21.3082L44.7841 21.2572L44.7866 21.0797L44.5418 21.0762ZM17.2176 25.6843L17.388 25.5103L17.0061 25.8064L17.2176 25.6843ZM20.9055 31.9359L20.694 32.058L20.8832 32.3787L21.1037 32.0782L20.9055 31.9359ZM17.2186 25.6852L17.0481 25.8592L17.2582 26.0605L17.4216 25.8207L17.2186 25.6852ZM18.2773 24.132L18.4864 24.0058L18.2877 23.6834L18.0742 23.9965L18.2773 24.132ZM22.0907 30.3206L22.2889 30.4629L22.3847 30.3322L22.2998 30.1944L22.0907 30.3206ZM47.3717 16.9869L44.5073 17.9212L44.6606 18.3813L47.5251 17.4471L47.3717 16.9869ZM47.5573 17L47.5554 16.9991L47.3415 17.435L47.3434 17.4359L47.5573 17ZM47.755 22.3678C47.7334 20.65 47.7139 18.9323 47.6952 17.2154L47.2054 17.2206C47.2241 18.9376 47.2437 20.6557 47.2653 22.3738L47.755 22.3678ZM44.9935 23.5756C45.7002 23.2663 46.5689 22.9249 47.5852 22.6014L47.4351 22.1401C46.4007 22.4695 45.5162 22.8169 44.7956 23.1323L44.9935 23.5756ZM42.8759 24.604C43.7203 24.1711 44.2574 23.8967 44.9935 23.5756L44.7956 23.1323C44.0436 23.4603 43.4946 23.7411 42.6508 24.1737L42.8759 24.604ZM40.4661 25.8986C41.2133 25.4553 41.839 25.1341 42.8759 24.604L42.6508 24.1737C41.6154 24.703 40.9767 25.0307 40.2142 25.4831L40.4661 25.8986ZM37.4801 27.964C38.6338 27.0993 39.3631 26.5529 40.4661 25.8986L40.2142 25.4831C39.0857 26.1525 38.3372 26.7137 37.1843 27.5778L37.4801 27.964ZM37.4775 27.9659L37.4801 27.964L37.1843 27.5778L37.1817 27.5797L37.4775 27.9659ZM34.7132 30.1777C35.3934 29.597 36.3286 28.8278 37.4775 27.9659L37.1817 27.5797C36.023 28.4489 35.0798 29.2247 34.3934 29.8107L34.7132 30.1777ZM31.6246 33.0109C32.8148 31.8742 33.5846 31.139 34.7132 30.1777L34.3934 29.8107C33.253 30.7821 32.4742 31.526 31.2844 32.6623L31.6246 33.0109ZM31.5728 33.0604L31.6246 33.0109L31.2844 32.6623L31.2326 32.7118L31.5728 33.0604ZM31.5245 33.1065L31.5728 33.0604L31.2326 32.7118L31.1842 32.7581L31.5245 33.1065ZM29.0819 35.5276C29.9106 34.6494 30.532 34.0553 31.5245 33.1065L31.1842 32.7581C30.192 33.7065 29.5623 34.3086 28.7239 35.197L29.0819 35.5276ZM26.9997 37.8736C27.5381 37.2375 28.1748 36.4889 29.0819 35.5276L28.7239 35.197C27.8076 36.168 27.164 36.9247 26.6241 37.5625L26.9997 37.8736ZM23.8481 41.8576C25.0599 40.2182 26.1475 38.8808 26.9997 37.8736L26.6241 37.5625C25.7666 38.5761 24.672 39.922 23.4527 41.5716L23.8481 41.8576ZM21.9693 39.7238L23.4486 41.8518L23.8522 41.5773L22.3729 39.4492L21.9693 39.7238ZM23.4762 37.4765C22.9539 38.1363 22.4523 38.7933 21.9732 39.4438L22.369 39.7291C22.8448 39.0832 23.343 38.4307 23.8618 37.7752L23.4762 37.4765ZM28.9835 31.2905C27.1531 33.1236 25.296 35.1778 23.4762 37.4765L23.8618 37.7752C25.6692 35.4922 27.5137 33.452 29.332 31.631L28.9835 31.2905ZM29.2938 30.9937C29.164 31.1173 29.0578 31.2191 28.9872 31.2869L29.3283 31.6347C29.3989 31.567 29.5044 31.4656 29.6335 31.3427L29.2938 30.9937ZM30.436 29.8885C30.2115 30.1077 29.8239 30.4864 29.2934 30.9941L29.6339 31.3423C30.1662 30.833 30.5554 30.4528 30.7801 30.2333L30.436 29.8885ZM30.5842 29.744C30.5473 29.7798 30.4976 29.8283 30.436 29.8885L30.7801 30.2333C30.842 30.1729 30.891 30.125 30.9272 30.0899L30.5842 29.744ZM31.1617 29.2087C30.8633 29.4799 30.6793 29.6517 30.5842 29.744L30.9272 30.0899C31.0164 30.0034 31.1952 29.8363 31.4929 29.5656L31.1617 29.2087ZM32.4481 28.0761C32.2554 28.2412 31.7515 28.6739 31.1617 29.2087L31.4929 29.5656C32.0775 29.0355 32.5772 28.6065 32.7688 28.4423L32.4481 28.0761ZM34.0381 26.7085C33.8501 26.8712 33.4487 27.2187 32.4481 28.0761L32.7688 28.4423C33.77 27.5845 34.172 27.2364 34.3606 27.0732L34.0381 26.7085ZM34.2901 26.4954C34.2065 26.5628 34.1926 26.5748 34.0381 26.7085L34.3606 27.0732C34.5148 26.9397 34.523 26.9327 34.5993 26.8712L34.2901 26.4954ZM36.2626 25.016C35.5162 25.5539 34.9827 25.9383 34.2901 26.4954L34.5993 26.8712C35.2806 26.3232 35.8043 25.9458 36.551 25.4076L36.2626 25.016ZM36.2728 25.0086L36.2626 25.016L36.551 25.4076L36.5612 25.4003L36.2728 25.0086ZM38.0391 23.795C37.4887 24.1319 37.0712 24.433 36.2728 25.0086L36.5612 25.4003C37.3626 24.8225 37.7648 24.5327 38.2966 24.2072L38.0391 23.795ZM39.6964 22.8826C39.0486 23.2186 38.6129 23.4445 38.0391 23.795L38.2966 24.2072C38.8539 23.8668 39.2754 23.6481 39.9239 23.3117L39.6964 22.8826ZM39.7277 22.8664L39.6964 22.8826L39.9239 23.3117L39.9549 23.2956L39.7277 22.8664ZM41.8476 21.8472C41.3704 22.0616 40.656 22.3864 39.7277 22.8664L39.9549 23.2956C40.8716 22.8216 41.5764 22.5012 42.0501 22.2884L41.8476 21.8472ZM43.1617 21.2895C43.0465 21.3335 42.649 21.4868 41.8476 21.8472L42.0501 22.2884C42.8427 21.9319 43.2316 21.7822 43.338 21.7416L43.1617 21.2895ZM44.4714 20.8442C44.1367 20.9436 43.6868 21.0895 43.1617 21.2895L43.338 21.7416C43.8501 21.5464 44.288 21.4046 44.6122 21.3082L44.4714 20.8442ZM44.3391 18.1478L44.2969 21.0727L44.7866 21.0797L44.8288 18.1547L44.3391 18.1478ZM17.0061 25.8064L20.694 32.058L21.1171 31.8138L17.4291 25.5622L17.0061 25.8064ZM17.389 25.5112L17.388 25.5103L17.0471 25.8582L17.0481 25.8592L17.389 25.5112ZM18.0742 23.9965L17.0155 25.5498L17.4216 25.8207L18.4803 24.2674L18.0742 23.9965ZM22.2998 30.1944L18.4864 24.0058L18.0682 24.258L21.8816 30.4466L22.2998 30.1944ZM21.1037 32.0782L22.2889 30.4629L21.8925 30.1782L20.7073 31.7936L21.1037 32.0782Z" fill="white"/>
<path d="M19.7046 33.556C21.0711 31.7205 22.1161 30.2886 22.8327 29.2979C23.3445 28.5914 23.7689 28.0006 24.4306 27.1849C25.0335 26.4426 25.5207 25.9007 26.4707 24.8451C27.4186 23.7924 27.8912 23.2664 28.4764 22.6672C29.042 22.0867 29.9027 21.2127 31.1281 20.1646C31.9555 19.4572 32.6261 18.9482 33.0652 18.6151C33.5789 18.2256 34.1435 17.8004 34.9347 17.282C35.5954 16.8492 36.0914 16.5642 36.2198 16.4899C36.8257 16.1427 37.3012 15.9066 37.6541 15.7325C38.0726 15.5255 38.5393 15.296 39.1843 15.0288C39.8372 14.7578 40.3372 14.5885 40.4764 14.5415C40.9361 14.3872 41.339 14.2705 41.6665 14.184C41.6704 16.0618 41.6743 17.9387 41.6782 19.8175C40.9214 20.0762 40.0539 20.4149 39.1177 20.8571C38.7981 21.0086 37.7354 21.5203 36.4316 22.3417C35.5944 22.8704 34.9964 23.3107 34.1533 23.9344C33.5211 24.403 33.0642 24.7605 32.4192 25.2675C31.3908 26.0729 30.8771 26.4765 30.3792 26.9083C29.6802 27.5133 29.1558 28.0344 28.1352 29.0534C27.5598 29.6272 26.9354 30.25 26.2138 31.0196C25.8315 31.4269 25.1041 32.2144 22.2691 35.6502C20.6761 37.5798 20.3879 37.9618 20.1957 38.2177C20.1408 38.2901 19.7379 38.8781 19.285 39.5442C18.7017 40.4013 18.0361 41.3873 17.9185 41.581L9.33289 27.2837L12.6317 21.8891L14.2531 24.5657L19.7036 33.5551L19.7046 33.556Z" stroke="white"/>
<path d="M6.73998 23.9598C7.33895 24.067 7.53599 24.6409 7.33209 25.6824C7.29878 25.8508 7.24192 26.1189 7.16056 26.4896C6.97429 26.4237 6.50767 26.2723 5.76264 26.0361C5.26167 25.8847 4.83329 25.7727 4.47253 25.7003L4.54802 25.3136C4.56174 25.2459 4.58233 25.1264 4.61174 24.9533C4.64115 24.7811 4.66468 24.6494 4.68232 24.5591C4.7382 24.2768 4.82839 24.0604 4.95682 23.9099C5.08427 23.7594 5.24012 23.702 5.42737 23.7359C5.5842 23.7641 5.71459 23.8441 5.81754 23.9748C5.92045 24.1056 5.9734 24.2608 5.97731 24.4396L6.00768 24.4471C6.06259 24.2947 6.15281 24.1668 6.27922 24.0651C6.40667 23.9635 6.56061 23.9287 6.73998 23.9607V23.9598ZM5.46068 24.385C5.24796 24.3464 5.11072 24.4819 5.04896 24.7896C5.01859 24.9439 5.00091 25.0887 4.99601 25.2252C5.05287 25.2355 5.29307 25.3013 5.71557 25.4227C5.7332 25.3531 5.74594 25.2863 5.7597 25.2233C5.85869 24.7181 5.7597 24.4396 5.46166 24.386L5.46068 24.385ZM6.65078 24.5713C6.40569 24.528 6.23514 24.7519 6.13905 25.243C6.11945 25.3446 6.1028 25.4425 6.09202 25.5347C6.37924 25.6222 6.64491 25.6965 6.88804 25.7576C6.91155 25.6937 6.93506 25.6109 6.9547 25.5111C7.01446 25.2044 7.02034 24.9777 6.9694 24.8328C6.91841 24.6889 6.81251 24.6014 6.6498 24.5722L6.65078 24.5713Z" fill="white"/>
<path d="M7.23811 20.6538C7.65179 20.8014 7.95865 21.0799 8.15569 21.4901C8.35269 21.9003 8.36352 22.3303 8.18802 22.7809C8.0547 23.1224 7.83218 23.3651 7.51945 23.5062C7.20769 23.6493 6.88027 23.6587 6.53912 23.5364C6.12054 23.3877 5.81467 23.1074 5.62061 22.6962C5.4265 22.2851 5.41671 21.8561 5.59117 21.4083C5.7245 21.0667 5.94701 20.8249 6.25876 20.6829C6.56954 20.5418 6.89697 20.5314 7.23909 20.6538H7.23811ZM7.04401 21.2633C6.80381 21.1778 6.58717 21.1759 6.39307 21.254C6.19896 21.3339 6.0627 21.4732 5.98526 21.6698C5.88432 21.9304 5.91468 22.1807 6.07837 22.4168C6.24211 22.6548 6.45777 22.8213 6.72833 22.9173C6.96853 23.0029 7.18516 23.0067 7.38123 22.9276C7.57534 22.8486 7.71258 22.7103 7.79001 22.5128C7.89101 22.2531 7.85961 22.0038 7.69298 21.763C7.52631 21.5249 7.31065 21.3584 7.04401 21.2624V21.2633Z" fill="white"/>
<path d="M7.76938 17.4937C8.07031 17.7176 8.41635 17.9734 8.80652 18.2614C9.24082 18.5812 9.64569 18.8587 10.0241 19.0949L9.67115 19.665C9.35254 19.4063 8.97614 19.1175 8.54183 18.7986C8.2409 18.5756 7.98895 18.3968 7.78799 18.2604L7.5978 18.5681C7.67328 18.6518 7.75267 18.7458 7.8331 18.8521C7.91445 18.9575 7.99581 19.0695 8.0752 19.1871C8.15656 19.3056 8.23405 19.4279 8.30854 19.554C8.38304 19.6801 8.45264 19.8071 8.51342 19.9369C8.57617 20.0658 8.62911 20.1937 8.67418 20.3189C8.71929 20.445 8.75161 20.5654 8.77321 20.683C8.7928 20.7996 8.79966 20.9088 8.79085 21.0113C8.78301 21.1129 8.75651 21.2032 8.71341 21.2813L8.27421 20.985C8.29679 20.9304 8.29679 20.8513 8.27519 20.7497C8.25364 20.6463 8.21636 20.5287 8.16249 20.3951C8.10758 20.2615 8.03994 20.1176 7.95854 19.9661C7.87718 19.8137 7.78701 19.6603 7.68797 19.5069C7.58898 19.3527 7.48603 19.204 7.37627 19.0591C7.26743 18.9143 7.15669 18.7844 7.0459 18.6668L7.76938 17.4955V17.4937Z" fill="white"/>
<path d="M9.67113 15.2339L9.99366 15.5801C9.65442 15.9432 9.35839 16.2716 9.10644 16.5642C9.22507 16.6676 9.4682 16.8963 9.83873 17.25C10.2514 17.6649 10.5671 17.964 10.7837 18.1475L10.3554 18.6461C10.2397 18.5172 9.92406 18.188 9.40742 17.6555C8.97312 17.2189 8.63589 16.9057 8.39771 16.7156L9.67113 15.2329V15.2339Z" fill="white"/>
<path d="M13.8188 15.2339L13.2493 15.7184C13.1453 15.6064 12.9375 15.4408 12.6258 15.2216L11.8043 15.9207C11.8406 16.0458 11.8749 16.1577 11.9082 16.2556C11.9837 16.4908 12.0464 16.6385 12.0964 16.6996L11.5602 17.155C11.5278 17.1145 11.4043 16.6328 11.1886 15.7127C10.973 14.7926 10.8416 14.2987 10.7936 14.2338L11.4651 13.6627C11.5729 13.7784 11.9631 14.0381 12.6366 14.4417C13.3101 14.8453 13.7061 15.1097 13.8208 15.2339H13.8188ZM12.3003 14.9742C11.6827 14.5602 11.3523 14.3316 11.3092 14.2855L11.2808 14.31C11.3092 14.3495 11.4328 14.7559 11.6514 15.5274L12.2993 14.9751L12.3003 14.9742Z" fill="white"/>
<path d="M14.6738 11.56L14.8591 11.9702C14.5797 12.1141 14.3229 12.2581 14.0856 12.4001C14.1376 12.5158 14.265 12.7793 14.4679 13.1904C14.7051 13.6731 14.9287 14.0889 15.1394 14.4379L14.5532 14.7907C14.4719 14.6044 14.2719 14.1754 13.9523 13.5009C13.8121 13.2186 13.6807 12.9571 13.5553 12.7191C13.366 12.8338 13.1092 13.0004 12.7887 13.2205L12.6073 12.8056L14.6738 11.5591V11.56Z" fill="white"/>
<path d="M17.152 10.527L17.2667 10.9683C16.8256 11.1264 16.4276 11.2788 16.0707 11.4265C16.1217 11.5648 16.1932 11.7793 16.2903 12.069C16.5942 11.943 16.9177 11.8019 17.2598 11.6438L17.3853 12.0587C17.0432 12.1847 16.7167 12.3136 16.404 12.4416C16.4864 12.7097 16.5687 12.9581 16.6491 13.1905C17.0491 13.0249 17.4725 12.8377 17.9206 12.6269L18.0333 13.071L16.1717 13.8396C16.1266 13.6534 15.9972 13.2008 15.7854 12.4773C15.6374 11.9966 15.4933 11.593 15.3551 11.2665L17.151 10.5261L17.152 10.527Z" fill="white"/>
<path d="M20.4291 9.69531C20.4389 9.73107 20.3311 9.95216 20.1066 10.3576C19.8831 10.7622 19.738 11.0058 19.6723 11.0858L19.6782 11.1159C19.79 11.1837 20.0155 11.3897 20.3507 11.7331C20.686 12.0765 20.8625 12.2788 20.8781 12.3399L20.0978 12.5234C20.0841 12.4698 19.9684 12.3145 19.7498 12.0558C19.5312 11.7971 19.3832 11.6343 19.3067 11.5685L19.2685 11.5769C19.2087 11.6804 19.1185 11.9006 18.9969 12.2364C18.8754 12.5742 18.8214 12.7689 18.8342 12.8197L18.094 12.9938C18.0852 12.9552 18.2058 12.6899 18.4607 12.1978C18.7156 11.7049 18.8802 11.4123 18.9547 11.3172L18.9499 11.2872C18.8597 11.2251 18.6675 11.0539 18.3744 10.7744C18.0803 10.4941 17.9284 10.3313 17.9166 10.2871L18.6626 10.1111C18.6744 10.1592 18.7734 10.2909 18.9557 10.5044C19.1381 10.7199 19.2596 10.8497 19.3195 10.8939L19.3557 10.8854C19.4077 10.8036 19.489 10.623 19.5998 10.3407C19.7106 10.0594 19.7606 9.89664 19.7498 9.85434L20.4321 9.69531H20.4291Z" fill="white"/>
<path fill-rule="evenodd" clip-rule="evenodd" d="M23.3493 3.49871L4.36854 12.1198L0.51592 10.7741L0.474609 10.6904L22.713 0.589597C22.9258 0.492981 23.1509 0.450299 23.3721 0.455791C23.5886 0.454624 23.808 0.499682 24.0151 0.596197L46.8707 11.2486L46.8663 11.2574L42.8911 12.6067L23.3493 3.49871Z" fill="white"/>
</g>
<defs>
<clipPath id="clip0_3118_11208">
<rect width="48" height="47" fill="white"/>
</clipPath>
</defs>
</svg>
