<svg width="136" height="49" viewBox="0 0 136 49" fill="none" xmlns="http://www.w3.org/2000/svg">
<path d="M1.25977 18.3574V9.84668C1.25977 9.66895 1.32129 9.51628 1.44434 9.38867C1.56738 9.26107 1.71777 9.19727 1.89551 9.19727H10.7686C10.9463 9.19727 11.0967 9.26107 11.2197 9.38867C11.3473 9.51628 11.4111 9.66895 11.4111 9.84668V18.3574C11.4111 18.5352 11.3451 18.6878 11.2129 18.8154C11.0853 18.9385 10.9326 19 10.7549 19H9.4834C9.30566 19 9.15299 18.9385 9.02539 18.8154C8.89779 18.6878 8.83398 18.5352 8.83398 18.3574V11.1318H3.83691V18.3574C3.83691 18.5352 3.77311 18.6878 3.64551 18.8154C3.52246 18.9385 3.37207 19 3.19434 19H1.90918C1.73145 19 1.57878 18.9385 1.45117 18.8154C1.32357 18.6878 1.25977 18.5352 1.25977 18.3574ZM23.917 17.9883C22.9873 18.804 21.6201 19.2119 19.8154 19.2119C18.0153 19.2119 16.6481 18.804 15.7139 17.9883C14.7796 17.168 14.3125 15.8714 14.3125 14.0986C14.3125 12.3258 14.7796 11.0316 15.7139 10.2158C16.6481 9.40007 18.0153 8.99219 19.8154 8.99219C21.6201 8.99219 22.9873 9.40007 23.917 10.2158C24.8512 11.0316 25.3184 12.3258 25.3184 14.0986C25.3184 15.8714 24.8512 17.168 23.917 17.9883ZM22.0508 11.6582C21.5905 11.1113 20.8454 10.8379 19.8154 10.8379C18.79 10.8379 18.0449 11.1113 17.5801 11.6582C17.1198 12.2051 16.8896 13.0208 16.8896 14.1055C16.8896 15.1855 17.1198 15.999 17.5801 16.5459C18.0449 17.0882 18.79 17.3594 19.8154 17.3594C20.8454 17.3594 21.5905 17.0882 22.0508 16.5459C22.5111 15.999 22.7412 15.1855 22.7412 14.1055C22.7412 13.0208 22.5111 12.2051 22.0508 11.6582ZM28.2266 9.84668C28.2266 9.66895 28.2904 9.51628 28.418 9.38867C28.5456 9.26107 28.6982 9.19727 28.876 9.19727H34.4336C35.7962 9.19727 36.8011 9.58919 37.4482 10.373C37.8083 10.806 37.9883 11.3597 37.9883 12.0342C37.9883 12.7041 37.6807 13.2897 37.0654 13.791C37.9404 14.2604 38.3779 14.9896 38.3779 15.9785C38.3779 16.9674 38.027 17.7194 37.3252 18.2344C36.6279 18.7448 35.7712 19 34.7549 19H28.876C28.6982 19 28.5456 18.9385 28.418 18.8154C28.2904 18.6878 28.2266 18.5352 28.2266 18.3574V9.84668ZM30.8037 17.1543H34.7139C35.0648 17.1543 35.3337 17.0495 35.5205 16.8398C35.7074 16.6302 35.8008 16.3431 35.8008 15.9785C35.8008 15.6139 35.7074 15.3268 35.5205 15.1172C35.3337 14.9076 35.0648 14.8027 34.7139 14.8027H30.8037V17.1543ZM30.8037 13.0049H34.4609C34.748 13.0049 34.9782 12.9206 35.1514 12.752C35.3245 12.5788 35.4111 12.3395 35.4111 12.0342C35.4111 11.7243 35.3245 11.4827 35.1514 11.3096C34.9782 11.1364 34.748 11.0498 34.4609 11.0498H30.8037V13.0049ZM50.3232 17.9883C49.3936 18.804 48.0264 19.2119 46.2217 19.2119C44.4215 19.2119 43.0544 18.804 42.1201 17.9883C41.1859 17.168 40.7188 15.8714 40.7188 14.0986C40.7188 12.3258 41.1859 11.0316 42.1201 10.2158C43.0544 9.40007 44.4215 8.99219 46.2217 8.99219C48.0264 8.99219 49.3936 9.40007 50.3232 10.2158C51.2575 11.0316 51.7246 12.3258 51.7246 14.0986C51.7246 15.8714 51.2575 17.168 50.3232 17.9883ZM48.457 11.6582C47.9967 11.1113 47.2516 10.8379 46.2217 10.8379C45.1963 10.8379 44.4512 11.1113 43.9863 11.6582C43.526 12.2051 43.2959 13.0208 43.2959 14.1055C43.2959 15.1855 43.526 15.999 43.9863 16.5459C44.4512 17.0882 45.1963 17.3594 46.2217 17.3594C47.2516 17.3594 47.9967 17.0882 48.457 16.5459C48.9173 15.999 49.1475 15.1855 49.1475 14.1055C49.1475 13.0208 48.9173 12.2051 48.457 11.6582ZM53.8262 18.4258L55.5625 11.8633C56.0273 10.0905 57.5381 9.20182 60.0947 9.19727H63.5127C63.6722 9.19727 63.8066 9.26335 63.916 9.39551C64.0299 9.52767 64.0869 9.67806 64.0869 9.84668V18.3574C64.0869 18.5352 64.0254 18.6878 63.9023 18.8154C63.7839 18.9385 63.6357 19 63.458 19H62.1523C61.9746 19 61.8219 18.9385 61.6943 18.8154C61.5713 18.6878 61.5098 18.5352 61.5098 18.3574V11.1318H59.8418C59.4043 11.1318 59.0215 11.2572 58.6934 11.5078C58.3698 11.7539 58.151 12.0866 58.0371 12.5059L56.4717 18.3574C56.4261 18.5443 56.3236 18.6992 56.1641 18.8223C56.0046 18.9408 55.8359 19 55.6582 19H54.2705C54.111 19 53.9925 18.9499 53.915 18.8496C53.8421 18.7493 53.8057 18.665 53.8057 18.5967C53.8102 18.5283 53.8171 18.4714 53.8262 18.4258ZM66.8105 9.46387C66.8105 9.27702 66.9176 9.18359 67.1318 9.18359H68.7109C69.1211 9.18359 69.4492 9.40462 69.6953 9.84668L70.7549 11.7334C71.0283 12.221 71.3154 12.5742 71.6162 12.793C71.9215 13.0117 72.2747 13.1211 72.6758 13.1211H72.9834V9.84668C72.9834 9.66895 73.0449 9.514 73.168 9.38184C73.2956 9.24967 73.4482 9.18359 73.626 9.18359H74.918C75.0957 9.18359 75.2461 9.24967 75.3691 9.38184C75.4967 9.514 75.5605 9.66895 75.5605 9.84668V13.1211H75.8682C76.2692 13.1211 76.6201 13.0117 76.9209 12.793C77.2262 12.5742 77.5133 12.221 77.7822 11.7334L78.8486 9.84668C79.0902 9.40462 79.416 9.18359 79.8262 9.18359H81.4121C81.5898 9.18359 81.6969 9.24512 81.7334 9.36816V9.46387C81.7334 9.5778 81.6969 9.7054 81.624 9.84668L80.1406 12.5332C79.9219 12.9251 79.6803 13.2487 79.416 13.5039C79.1517 13.7591 78.8031 13.9391 78.3701 14.0439C78.6709 14.1077 78.9785 14.2969 79.293 14.6113C79.612 14.9258 79.8945 15.2676 80.1406 15.6367L81.8428 18.3574C81.9658 18.5579 82 18.7152 81.9453 18.8291C81.8952 18.943 81.7835 19 81.6104 19H80.0381C79.8604 19 79.6689 18.9385 79.4639 18.8154C79.2588 18.6878 79.1016 18.5352 78.9922 18.3574L77.7822 16.4502C77.4951 15.9854 77.2057 15.6367 76.9141 15.4043C76.627 15.1673 76.2783 15.0488 75.8682 15.0488H75.5605V18.3711C75.5605 18.5488 75.4967 18.6992 75.3691 18.8223C75.2461 18.9408 75.0957 19 74.918 19H73.626C73.4482 19 73.2956 18.9408 73.168 18.8223C73.0449 18.6992 72.9834 18.5488 72.9834 18.3711V15.0488H72.6758C72.2656 15.0488 71.9147 15.1673 71.623 15.4043C71.3359 15.6367 71.0465 15.9854 70.7549 16.4502L69.5518 18.3574C69.4424 18.5352 69.2852 18.6878 69.0801 18.8154C68.875 18.9385 68.6836 19 68.5059 19H66.9336C66.7559 19 66.6442 18.9385 66.5986 18.8154C66.5804 18.779 66.5713 18.7266 66.5713 18.6582C66.5713 18.5853 66.6123 18.485 66.6943 18.3574L68.4033 15.6367C68.6494 15.2676 68.9297 14.9258 69.2441 14.6113C69.5632 14.2969 69.8708 14.1077 70.167 14.0439C69.7386 13.9391 69.39 13.7591 69.1211 13.5039C68.8568 13.2487 68.6175 12.9251 68.4033 12.5332L66.9199 9.84668C66.847 9.7054 66.8105 9.5778 66.8105 9.46387ZM84.9561 17.8447C84.113 17.0381 83.6914 15.7917 83.6914 14.1055C83.6914 12.4147 84.113 11.166 84.9561 10.3594C85.8037 9.54818 87.0729 9.14258 88.7637 9.14258H90.2881C91.3226 9.14258 92.2363 9.41146 93.0293 9.94922C93.8268 10.487 94.2256 11.223 94.2256 12.1572C94.2256 12.4261 94.1458 12.6198 93.9863 12.7383C93.8268 12.8522 93.6719 12.9092 93.5215 12.9092H92.708C92.2887 12.9092 91.9629 12.6585 91.7305 12.1572C91.3932 11.4372 90.8327 11.0771 90.0488 11.0771H88.832C87.834 11.0771 87.1572 11.2913 86.8018 11.7197C86.4463 12.1481 86.2686 12.9411 86.2686 14.0986C86.2686 15.2562 86.4463 16.0514 86.8018 16.4844C87.1572 16.9128 87.834 17.127 88.832 17.127H90.1924C90.9762 17.127 91.5345 16.7669 91.8672 16.0469C92.0996 15.541 92.4277 15.2881 92.8516 15.2881H93.665C93.8792 15.2881 94.0479 15.3678 94.1709 15.5273C94.2985 15.6868 94.3623 15.86 94.3623 16.0469C94.3623 16.9811 93.9658 17.7171 93.1729 18.2549C92.3799 18.7881 91.4661 19.0547 90.4316 19.0547H88.7637C87.0729 19.0547 85.8037 18.6514 84.9561 17.8447ZM107.34 18.6992C107.34 18.8997 107.221 19 106.984 19H105.419C105.241 19 105.05 18.9385 104.845 18.8154C104.64 18.6878 104.48 18.5352 104.366 18.3574L103.163 16.4502C102.876 15.9854 102.587 15.6367 102.295 15.4043C102.003 15.1673 101.652 15.0488 101.242 15.0488H99.7725V18.3711C99.7725 18.5488 99.7087 18.6992 99.5811 18.8223C99.458 18.9408 99.3076 19 99.1299 19H97.8447C97.667 19 97.5143 18.9362 97.3867 18.8086C97.2591 18.6764 97.1953 18.5215 97.1953 18.3438V9.84668C97.1953 9.66895 97.2591 9.514 97.3867 9.38184C97.5143 9.24967 97.667 9.18359 97.8447 9.18359H99.1299C99.3076 9.18359 99.458 9.24967 99.5811 9.38184C99.7087 9.514 99.7725 9.66895 99.7725 9.84668V13.1211H101.242C101.643 13.1211 101.994 13.0117 102.295 12.793C102.6 12.5742 102.89 12.221 103.163 11.7334L104.223 9.84668C104.464 9.40918 104.792 9.18815 105.207 9.18359H106.786C107.005 9.18359 107.114 9.2793 107.114 9.4707C107.114 9.57552 107.076 9.70085 106.998 9.84668L105.515 12.5332C105.3 12.9251 105.059 13.2487 104.79 13.5039C104.526 13.7591 104.179 13.9391 103.751 14.0439C104.052 14.1077 104.359 14.2969 104.674 14.6113C104.993 14.9258 105.273 15.2676 105.515 15.6367L107.224 18.3574C107.301 18.4896 107.34 18.6035 107.34 18.6992ZM109.824 18.3574V9.84668C109.824 9.65983 109.886 9.50488 110.009 9.38184C110.132 9.25879 110.287 9.19727 110.474 9.19727H111.677C111.854 9.19727 112.005 9.25879 112.128 9.38184C112.256 9.50488 112.319 9.65527 112.319 9.83301V16.6758L116.209 9.84668C116.314 9.66895 116.457 9.51628 116.64 9.38867C116.822 9.26107 116.991 9.19727 117.146 9.19727H119.162C119.34 9.19727 119.49 9.26107 119.613 9.38867C119.736 9.51628 119.798 9.66895 119.798 9.84668V18.3574C119.798 18.5352 119.734 18.6878 119.606 18.8154C119.479 18.9385 119.326 19 119.148 19H117.945C117.768 19 117.615 18.9385 117.487 18.8154C117.364 18.6878 117.303 18.5352 117.303 18.3574V12.0137L113.734 18.3574C113.63 18.5352 113.481 18.6878 113.29 18.8154C113.099 18.9385 112.914 19 112.736 19H110.474C110.296 19 110.143 18.9385 110.016 18.8154C109.888 18.6878 109.824 18.5352 109.824 18.3574ZM123.26 18.3574V9.84668C123.26 9.65983 123.321 9.50488 123.444 9.38184C123.567 9.25879 123.722 9.19727 123.909 9.19727H125.112C125.29 9.19727 125.44 9.25879 125.563 9.38184C125.691 9.50488 125.755 9.65527 125.755 9.83301V16.6758L129.645 9.84668C129.749 9.66895 129.893 9.51628 130.075 9.38867C130.257 9.26107 130.426 9.19727 130.581 9.19727H132.598C132.775 9.19727 132.926 9.26107 133.049 9.38867C133.172 9.51628 133.233 9.66895 133.233 9.84668V18.3574C133.233 18.5352 133.17 18.6878 133.042 18.8154C132.914 18.9385 132.762 19 132.584 19H131.381C131.203 19 131.05 18.9385 130.923 18.8154C130.8 18.6878 130.738 18.5352 130.738 18.3574V12.0137L127.17 18.3574C127.065 18.5352 126.917 18.6878 126.726 18.8154C126.534 18.9385 126.35 19 126.172 19H123.909C123.731 19 123.579 18.9385 123.451 18.8154C123.324 18.6878 123.26 18.5352 123.26 18.3574ZM125.953 6.40137C125.953 6.16895 126.078 6.05273 126.329 6.05273H126.89C127.113 6.05273 127.27 6.16895 127.361 6.40137C127.493 6.72493 127.787 6.88672 128.243 6.88672C128.703 6.88672 128.997 6.72493 129.125 6.40137C129.221 6.16895 129.38 6.05273 129.604 6.05273H130.164C130.415 6.05273 130.54 6.16895 130.54 6.40137C130.54 7.02572 130.33 7.52018 129.911 7.88477C129.492 8.24935 128.936 8.43164 128.243 8.43164C127.555 8.43164 127.001 8.24935 126.582 7.88477C126.163 7.52018 125.953 7.02572 125.953 6.40137Z" fill="white"/>
<path d="M1.65392 26V22.262H4.52392V23.004H2.32592L2.52892 22.808V26H1.65392ZM6.66269 26.049C6.28002 26.049 5.93936 25.9673 5.64069 25.804C5.34202 25.636 5.10636 25.4073 4.93369 25.118C4.76102 24.8287 4.67469 24.4997 4.67469 24.131C4.67469 23.7577 4.76102 23.4287 4.93369 23.144C5.10636 22.8547 5.34202 22.6283 5.64069 22.465C5.93936 22.3017 6.28002 22.22 6.66269 22.22C7.05002 22.22 7.39302 22.3017 7.69169 22.465C7.99502 22.6283 8.23069 22.8523 8.39869 23.137C8.57136 23.4217 8.65769 23.753 8.65769 24.131C8.65769 24.4997 8.57136 24.8287 8.39869 25.118C8.23069 25.4073 7.99502 25.636 7.69169 25.804C7.39302 25.9673 7.05002 26.049 6.66269 26.049ZM6.66269 25.3C6.87736 25.3 7.06869 25.2533 7.23669 25.16C7.40469 25.0667 7.53536 24.9313 7.62869 24.754C7.72669 24.5767 7.77569 24.369 7.77569 24.131C7.77569 23.8883 7.72669 23.6807 7.62869 23.508C7.53536 23.3307 7.40469 23.1953 7.23669 23.102C7.06869 23.0087 6.87969 22.962 6.66969 22.962C6.45502 22.962 6.26369 23.0087 6.09569 23.102C5.93236 23.1953 5.80169 23.3307 5.70369 23.508C5.60569 23.6807 5.55669 23.8883 5.55669 24.131C5.55669 24.369 5.60569 24.5767 5.70369 24.754C5.80169 24.9313 5.93236 25.0667 6.09569 25.16C6.26369 25.2533 6.45269 25.3 6.66269 25.3ZM11.2231 26.049C10.8311 26.049 10.4811 25.9673 10.1731 25.804C9.86975 25.636 9.63175 25.4073 9.45908 25.118C9.28642 24.8287 9.20008 24.4997 9.20008 24.131C9.20008 23.7577 9.28642 23.4287 9.45908 23.144C9.63175 22.8547 9.86975 22.6283 10.1731 22.465C10.4811 22.3017 10.8311 22.22 11.2231 22.22C11.5871 22.22 11.9067 22.2947 12.1821 22.444C12.4621 22.5887 12.6744 22.8033 12.8191 23.088L12.1471 23.48C12.0351 23.3027 11.8974 23.172 11.7341 23.088C11.5754 23.004 11.4027 22.962 11.2161 22.962C11.0014 22.962 10.8077 23.0087 10.6351 23.102C10.4624 23.1953 10.3271 23.3307 10.2291 23.508C10.1311 23.6807 10.0821 23.8883 10.0821 24.131C10.0821 24.3737 10.1311 24.5837 10.2291 24.761C10.3271 24.9337 10.4624 25.0667 10.6351 25.16C10.8077 25.2533 11.0014 25.3 11.2161 25.3C11.4027 25.3 11.5754 25.258 11.7341 25.174C11.8974 25.09 12.0351 24.9593 12.1471 24.782L12.8191 25.174C12.6744 25.454 12.4621 25.671 12.1821 25.825C11.9067 25.9743 11.5871 26.049 11.2231 26.049ZM13.8776 27.407C13.6956 27.407 13.5136 27.3767 13.3316 27.316C13.1496 27.2553 12.9979 27.1713 12.8766 27.064L13.2266 26.42C13.3153 26.4993 13.4156 26.5623 13.5276 26.609C13.6396 26.6557 13.7539 26.679 13.8706 26.679C14.0293 26.679 14.1576 26.6393 14.2556 26.56C14.3536 26.4807 14.4446 26.3477 14.5286 26.161L14.7456 25.671L14.8156 25.566L16.2296 22.262H17.0696L15.3196 26.301C15.2029 26.581 15.0723 26.8027 14.9276 26.966C14.7876 27.1293 14.6289 27.2437 14.4516 27.309C14.2789 27.3743 14.0876 27.407 13.8776 27.407ZM14.6476 26.133L12.9606 22.262H13.8706L15.2426 25.489L14.6476 26.133ZM20.0138 25.594V23.004H18.5788L18.5578 23.606C18.5484 23.8207 18.5344 24.0283 18.5158 24.229C18.4971 24.425 18.4668 24.607 18.4248 24.775C18.3828 24.9383 18.3221 25.0737 18.2428 25.181C18.1634 25.2883 18.0584 25.3583 17.9278 25.391L17.0598 25.258C17.1998 25.258 17.3118 25.2137 17.3958 25.125C17.4844 25.0317 17.5521 24.9057 17.5988 24.747C17.6501 24.5837 17.6874 24.3993 17.7108 24.194C17.7341 23.984 17.7504 23.767 17.7598 23.543L17.8088 22.262H20.8888V25.594H20.0138ZM16.9268 26.833V25.258H21.4418V26.833H20.6228V26H17.7388V26.833H16.9268ZM24.4913 26V25.244L24.4423 25.083V23.76C24.4423 23.5033 24.3653 23.305 24.2113 23.165C24.0573 23.0203 23.8239 22.948 23.5113 22.948C23.3013 22.948 23.0936 22.9807 22.8883 23.046C22.6876 23.1113 22.5173 23.2023 22.3773 23.319L22.0343 22.682C22.2349 22.528 22.4729 22.4137 22.7483 22.339C23.0283 22.2597 23.3176 22.22 23.6163 22.22C24.1576 22.22 24.5753 22.3507 24.8693 22.612C25.1679 22.8687 25.3173 23.2677 25.3173 23.809V26H24.4913ZM23.3153 26.049C23.0353 26.049 22.7903 26.0023 22.5803 25.909C22.3703 25.811 22.2069 25.678 22.0903 25.51C21.9783 25.3373 21.9223 25.1437 21.9223 24.929C21.9223 24.719 21.9713 24.53 22.0693 24.362C22.1719 24.194 22.3376 24.061 22.5663 23.963C22.7949 23.865 23.0983 23.816 23.4763 23.816H24.5613V24.397H23.5393C23.2406 24.397 23.0399 24.446 22.9373 24.544C22.8346 24.6373 22.7833 24.754 22.7833 24.894C22.7833 25.0527 22.8463 25.1787 22.9723 25.272C23.0983 25.3653 23.2733 25.412 23.4973 25.412C23.7119 25.412 23.9033 25.363 24.0713 25.265C24.2439 25.167 24.3676 25.0223 24.4423 24.831L24.5893 25.356C24.5053 25.5753 24.3536 25.7457 24.1343 25.867C23.9196 25.9883 23.6466 26.049 23.3153 26.049ZM28.472 26.049C28.1687 26.049 27.891 25.979 27.639 25.839C27.3917 25.699 27.1933 25.489 27.044 25.209C26.8993 24.9243 26.827 24.565 26.827 24.131C26.827 23.6923 26.897 23.333 27.037 23.053C27.1817 22.773 27.3777 22.5653 27.625 22.43C27.8723 22.29 28.1547 22.22 28.472 22.22C28.8407 22.22 29.165 22.2993 29.445 22.458C29.7297 22.6167 29.9537 22.8383 30.117 23.123C30.285 23.4077 30.369 23.7437 30.369 24.131C30.369 24.5183 30.285 24.8567 30.117 25.146C29.9537 25.4307 29.7297 25.6523 29.445 25.811C29.165 25.9697 28.8407 26.049 28.472 26.049ZM26.4 27.358V22.262H27.233V23.144L27.205 24.138L27.275 25.132V27.358H26.4ZM28.374 25.3C28.584 25.3 28.7707 25.2533 28.934 25.16C29.102 25.0667 29.235 24.9313 29.333 24.754C29.431 24.5767 29.48 24.369 29.48 24.131C29.48 23.8883 29.431 23.6807 29.333 23.508C29.235 23.3307 29.102 23.1953 28.934 23.102C28.7707 23.0087 28.584 22.962 28.374 22.962C28.164 22.962 27.975 23.0087 27.807 23.102C27.639 23.1953 27.506 23.3307 27.408 23.508C27.31 23.6807 27.261 23.8883 27.261 24.131C27.261 24.369 27.31 24.5767 27.408 24.754C27.506 24.9313 27.639 25.0667 27.807 25.16C27.975 25.2533 28.164 25.3 28.374 25.3ZM32.9409 26.049C32.5489 26.049 32.1989 25.9673 31.8909 25.804C31.5875 25.636 31.3495 25.4073 31.1769 25.118C31.0042 24.8287 30.9179 24.4997 30.9179 24.131C30.9179 23.7577 31.0042 23.4287 31.1769 23.144C31.3495 22.8547 31.5875 22.6283 31.8909 22.465C32.1989 22.3017 32.5489 22.22 32.9409 22.22C33.3049 22.22 33.6245 22.2947 33.8999 22.444C34.1799 22.5887 34.3922 22.8033 34.5369 23.088L33.8649 23.48C33.7529 23.3027 33.6152 23.172 33.4519 23.088C33.2932 23.004 33.1205 22.962 32.9339 22.962C32.7192 22.962 32.5255 23.0087 32.3529 23.102C32.1802 23.1953 32.0449 23.3307 31.9469 23.508C31.8489 23.6807 31.7999 23.8883 31.7999 24.131C31.7999 24.3737 31.8489 24.5837 31.9469 24.761C32.0449 24.9337 32.1802 25.0667 32.3529 25.16C32.5255 25.2533 32.7192 25.3 32.9339 25.3C33.1205 25.3 33.2932 25.258 33.4519 25.174C33.6152 25.09 33.7529 24.9593 33.8649 24.782L34.5369 25.174C34.3922 25.454 34.1799 25.671 33.8999 25.825C33.6245 25.9743 33.3049 26.049 32.9409 26.049ZM36.0569 26V22.794L36.2599 23.004H34.7409V22.262H38.2409V23.004H36.7289L36.9319 22.794V26H36.0569ZM38.8756 26V22.262H40.7026C41.1553 22.262 41.5099 22.346 41.7666 22.514C42.0279 22.682 42.1586 22.92 42.1586 23.228C42.1586 23.5313 42.0373 23.7693 41.7946 23.942C41.5519 24.11 41.2299 24.194 40.8286 24.194L40.9336 23.977C41.3863 23.977 41.7223 24.061 41.9416 24.229C42.1656 24.3923 42.2776 24.6327 42.2776 24.95C42.2776 25.2813 42.1539 25.5403 41.9066 25.727C41.6593 25.909 41.2836 26 40.7796 26H38.8756ZM39.7086 25.363H40.7096C40.9476 25.363 41.1273 25.3257 41.2486 25.251C41.3699 25.1717 41.4306 25.0527 41.4306 24.894C41.4306 24.726 41.3746 24.6023 41.2626 24.523C41.1506 24.4437 40.9756 24.404 40.7376 24.404H39.7086V25.363ZM39.7086 23.823H40.6256C40.8496 23.823 41.0176 23.7833 41.1296 23.704C41.2463 23.62 41.3046 23.5033 41.3046 23.354C41.3046 23.2 41.2463 23.0857 41.1296 23.011C41.0176 22.9363 40.8496 22.899 40.6256 22.899H39.7086V23.823ZM44.9526 26.049C44.5372 26.049 44.1732 25.9673 43.8606 25.804C43.5526 25.636 43.3122 25.4073 43.1396 25.118C42.9716 24.8287 42.8876 24.4997 42.8876 24.131C42.8876 23.7577 42.9692 23.4287 43.1326 23.144C43.3006 22.8547 43.5292 22.6283 43.8186 22.465C44.1126 22.3017 44.4462 22.22 44.8196 22.22C45.1836 22.22 45.5079 22.2993 45.7926 22.458C46.0772 22.6167 46.3012 22.8407 46.4646 23.13C46.6279 23.4193 46.7096 23.76 46.7096 24.152C46.7096 24.1893 46.7072 24.2313 46.7026 24.278C46.7026 24.3247 46.7002 24.369 46.6956 24.411H43.5806V23.83H46.2336L45.8906 24.012C45.8952 23.7973 45.8509 23.6083 45.7576 23.445C45.6642 23.2817 45.5359 23.1533 45.3726 23.06C45.2139 22.9667 45.0296 22.92 44.8196 22.92C44.6049 22.92 44.4159 22.9667 44.2526 23.06C44.0939 23.1533 43.9679 23.284 43.8746 23.452C43.7859 23.6153 43.7416 23.809 43.7416 24.033V24.173C43.7416 24.397 43.7929 24.5953 43.8956 24.768C43.9982 24.9407 44.1429 25.0737 44.3296 25.167C44.5162 25.2603 44.7309 25.307 44.9736 25.307C45.1836 25.307 45.3726 25.2743 45.5406 25.209C45.7086 25.1437 45.8579 25.041 45.9886 24.901L46.4576 25.44C46.2896 25.636 46.0772 25.7877 45.8206 25.895C45.5686 25.9977 45.2792 26.049 44.9526 26.049ZM47.6666 26V22.262H48.5416V23.781H50.4246V22.262H51.2996V26H50.4246V24.523H48.5416V26H47.6666ZM52.4723 26V22.262H53.3473V23.781H55.2303V22.262H56.1053V26H55.2303V24.523H53.3473V26H52.4723ZM61.0509 26V22.262H61.9259V26H61.0509ZM59.0979 23.494C59.5786 23.494 59.9426 23.6013 60.1899 23.816C60.4419 24.0307 60.5679 24.334 60.5679 24.726C60.5679 25.132 60.4279 25.4493 60.1479 25.678C59.8726 25.902 59.4806 26.0117 58.9719 26.007L57.2779 26V22.262H58.1529V23.487L59.0979 23.494ZM58.8949 25.363C59.1516 25.3677 59.3476 25.314 59.4829 25.202C59.6183 25.09 59.6859 24.9267 59.6859 24.712C59.6859 24.4973 59.6183 24.3433 59.4829 24.25C59.3523 24.152 59.1563 24.1007 58.8949 24.096L58.1529 24.089V25.356L58.8949 25.363ZM63.1022 26V22.262H63.9772V24.726L66.0422 22.262H66.8402V26H65.9652V23.536L63.9072 26H63.1022ZM64.9152 21.821C64.5418 21.821 64.2548 21.7347 64.0542 21.562C63.8535 21.3847 63.7508 21.128 63.7462 20.792H64.3272C64.3318 20.96 64.3832 21.093 64.4812 21.191C64.5838 21.289 64.7262 21.338 64.9082 21.338C65.0855 21.338 65.2255 21.289 65.3282 21.191C65.4355 21.093 65.4915 20.96 65.4962 20.792H66.0912C66.0865 21.128 65.9815 21.3847 65.7762 21.562C65.5755 21.7347 65.2885 21.821 64.9152 21.821ZM70.7288 26V22.794L70.9318 23.004H69.4128V22.262H72.9128V23.004H71.4008L71.6038 22.794V26H70.7288ZM75.1264 26.049C74.7111 26.049 74.3471 25.9673 74.0344 25.804C73.7264 25.636 73.4861 25.4073 73.3134 25.118C73.1454 24.8287 73.0614 24.4997 73.0614 24.131C73.0614 23.7577 73.1431 23.4287 73.3064 23.144C73.4744 22.8547 73.7031 22.6283 73.9924 22.465C74.2864 22.3017 74.6201 22.22 74.9934 22.22C75.3574 22.22 75.6817 22.2993 75.9664 22.458C76.2511 22.6167 76.4751 22.8407 76.6384 23.13C76.8017 23.4193 76.8834 23.76 76.8834 24.152C76.8834 24.1893 76.8811 24.2313 76.8764 24.278C76.8764 24.3247 76.8741 24.369 76.8694 24.411H73.7544V23.83H76.4074L76.0644 24.012C76.0691 23.7973 76.0247 23.6083 75.9314 23.445C75.8381 23.2817 75.7097 23.1533 75.5464 23.06C75.3877 22.9667 75.2034 22.92 74.9934 22.92C74.7787 22.92 74.5897 22.9667 74.4264 23.06C74.2677 23.1533 74.1417 23.284 74.0484 23.452C73.9597 23.6153 73.9154 23.809 73.9154 24.033V24.173C73.9154 24.397 73.9667 24.5953 74.0694 24.768C74.1721 24.9407 74.3167 25.0737 74.5034 25.167C74.6901 25.2603 74.9047 25.307 75.1474 25.307C75.3574 25.307 75.5464 25.2743 75.7144 25.209C75.8824 25.1437 76.0317 25.041 76.1624 24.901L76.6314 25.44C76.4634 25.636 76.2511 25.7877 75.9944 25.895C75.7424 25.9977 75.4531 26.049 75.1264 26.049ZM77.1849 26L78.8299 23.858L78.8159 24.327L77.2479 22.262H78.2209L79.3199 23.732H78.9489L80.0549 22.262H80.9999L79.4179 24.327L79.4249 23.858L81.0629 26H80.0759L78.9209 24.439L79.2849 24.488L78.1509 26H77.1849ZM81.6891 26V22.262H82.5641V23.781H84.4471V22.262H85.3221V26H84.4471V24.523H82.5641V26H81.6891ZM88.1607 26.049C87.7781 26.049 87.4374 25.9673 87.1387 25.804C86.8401 25.636 86.6044 25.4073 86.4317 25.118C86.2591 24.8287 86.1727 24.4997 86.1727 24.131C86.1727 23.7577 86.2591 23.4287 86.4317 23.144C86.6044 22.8547 86.8401 22.6283 87.1387 22.465C87.4374 22.3017 87.7781 22.22 88.1607 22.22C88.5481 22.22 88.8911 22.3017 89.1897 22.465C89.4931 22.6283 89.7287 22.8523 89.8967 23.137C90.0694 23.4217 90.1557 23.753 90.1557 24.131C90.1557 24.4997 90.0694 24.8287 89.8967 25.118C89.7287 25.4073 89.4931 25.636 89.1897 25.804C88.8911 25.9673 88.5481 26.049 88.1607 26.049ZM88.1607 25.3C88.3754 25.3 88.5667 25.2533 88.7347 25.16C88.9027 25.0667 89.0334 24.9313 89.1267 24.754C89.2247 24.5767 89.2737 24.369 89.2737 24.131C89.2737 23.8883 89.2247 23.6807 89.1267 23.508C89.0334 23.3307 88.9027 23.1953 88.7347 23.102C88.5667 23.0087 88.3777 22.962 88.1677 22.962C87.9531 22.962 87.7617 23.0087 87.5937 23.102C87.4304 23.1953 87.2997 23.3307 87.2017 23.508C87.1037 23.6807 87.0547 23.8883 87.0547 24.131C87.0547 24.369 87.1037 24.5767 87.2017 24.754C87.2997 24.9313 87.4304 25.0667 87.5937 25.16C87.7617 25.2533 87.9507 25.3 88.1607 25.3ZM90.4331 25.993L90.4751 25.258C90.5078 25.2627 90.5381 25.2673 90.5661 25.272C90.5941 25.2767 90.6198 25.279 90.6431 25.279C90.7878 25.279 90.8998 25.2347 90.9791 25.146C91.0584 25.0573 91.1168 24.9383 91.1541 24.789C91.1961 24.635 91.2241 24.4647 91.2381 24.278C91.2568 24.0867 91.2708 23.8953 91.2801 23.704L91.3431 22.262H94.3671V26H93.4921V22.766L93.6951 23.004H91.9171L92.1061 22.759L92.0571 23.746C92.0431 24.0773 92.0151 24.3853 91.9731 24.67C91.9358 24.95 91.8751 25.195 91.7911 25.405C91.7118 25.615 91.5998 25.7783 91.4551 25.895C91.3151 26.0117 91.1354 26.07 90.9161 26.07C90.8461 26.07 90.7691 26.063 90.6851 26.049C90.6058 26.035 90.5218 26.0163 90.4331 25.993ZM97.2115 26.049C96.8289 26.049 96.4882 25.9673 96.1895 25.804C95.8909 25.636 95.6552 25.4073 95.4825 25.118C95.3099 24.8287 95.2235 24.4997 95.2235 24.131C95.2235 23.7577 95.3099 23.4287 95.4825 23.144C95.6552 22.8547 95.8909 22.6283 96.1895 22.465C96.4882 22.3017 96.8289 22.22 97.2115 22.22C97.5989 22.22 97.9419 22.3017 98.2405 22.465C98.5439 22.6283 98.7795 22.8523 98.9475 23.137C99.1202 23.4217 99.2065 23.753 99.2065 24.131C99.2065 24.4997 99.1202 24.8287 98.9475 25.118C98.7795 25.4073 98.5439 25.636 98.2405 25.804C97.9419 25.9673 97.5989 26.049 97.2115 26.049ZM97.2115 25.3C97.4262 25.3 97.6175 25.2533 97.7855 25.16C97.9535 25.0667 98.0842 24.9313 98.1775 24.754C98.2755 24.5767 98.3245 24.369 98.3245 24.131C98.3245 23.8883 98.2755 23.6807 98.1775 23.508C98.0842 23.3307 97.9535 23.1953 97.7855 23.102C97.6175 23.0087 97.4285 22.962 97.2185 22.962C97.0039 22.962 96.8125 23.0087 96.6445 23.102C96.4812 23.1953 96.3505 23.3307 96.2525 23.508C96.1545 23.6807 96.1055 23.8883 96.1055 24.131C96.1055 24.369 96.1545 24.5767 96.2525 24.754C96.3505 24.9313 96.4812 25.0667 96.6445 25.16C96.8125 25.2533 97.0015 25.3 97.2115 25.3ZM100.071 26V22.262H102.941V23.004H100.743L100.946 22.808V26H100.071ZM103.578 26V22.262H104.453V24.726L106.518 22.262H107.316V26H106.441V23.536L104.383 26H103.578ZM110.852 24.523C110.674 24.607 110.485 24.677 110.285 24.733C110.089 24.7843 109.881 24.81 109.662 24.81C109.19 24.81 108.824 24.7003 108.563 24.481C108.301 24.2617 108.171 23.921 108.171 23.459V22.262H109.046V23.403C109.046 23.6503 109.116 23.83 109.256 23.942C109.4 24.054 109.599 24.11 109.851 24.11C110.019 24.11 110.187 24.089 110.355 24.047C110.523 24.005 110.688 23.9467 110.852 23.872V24.523ZM110.789 26V22.262H111.664V26H110.789ZM114.583 26.049C114.168 26.049 113.804 25.9673 113.491 25.804C113.183 25.636 112.943 25.4073 112.77 25.118C112.602 24.8287 112.518 24.4997 112.518 24.131C112.518 23.7577 112.6 23.4287 112.763 23.144C112.931 22.8547 113.16 22.6283 113.449 22.465C113.743 22.3017 114.077 22.22 114.45 22.22C114.814 22.22 115.139 22.2993 115.423 22.458C115.708 22.6167 115.932 22.8407 116.095 23.13C116.259 23.4193 116.34 23.76 116.34 24.152C116.34 24.1893 116.338 24.2313 116.333 24.278C116.333 24.3247 116.331 24.369 116.326 24.411H113.211V23.83H115.864L115.521 24.012C115.526 23.7973 115.482 23.6083 115.388 23.445C115.295 23.2817 115.167 23.1533 115.003 23.06C114.845 22.9667 114.66 22.92 114.45 22.92C114.236 22.92 114.047 22.9667 113.883 23.06C113.725 23.1533 113.599 23.284 113.505 23.452C113.417 23.6153 113.372 23.809 113.372 24.033V24.173C113.372 24.397 113.424 24.5953 113.526 24.768C113.629 24.9407 113.774 25.0737 113.96 25.167C114.147 25.2603 114.362 25.307 114.604 25.307C114.814 25.307 115.003 25.2743 115.171 25.209C115.339 25.1437 115.489 25.041 115.619 24.901L116.088 25.44C115.92 25.636 115.708 25.7877 115.451 25.895C115.199 25.9977 114.91 26.049 114.583 26.049ZM118.998 26.049C118.606 26.049 118.256 25.9673 117.948 25.804C117.645 25.636 117.407 25.4073 117.234 25.118C117.062 24.8287 116.975 24.4997 116.975 24.131C116.975 23.7577 117.062 23.4287 117.234 23.144C117.407 22.8547 117.645 22.6283 117.948 22.465C118.256 22.3017 118.606 22.22 118.998 22.22C119.362 22.22 119.682 22.2947 119.957 22.444C120.237 22.5887 120.45 22.8033 120.594 23.088L119.922 23.48C119.81 23.3027 119.673 23.172 119.509 23.088C119.351 23.004 119.178 22.962 118.991 22.962C118.777 22.962 118.583 23.0087 118.41 23.102C118.238 23.1953 118.102 23.3307 118.004 23.508C117.906 23.6807 117.857 23.8883 117.857 24.131C117.857 24.3737 117.906 24.5837 118.004 24.761C118.102 24.9337 118.238 25.0667 118.41 25.16C118.583 25.2533 118.777 25.3 118.991 25.3C119.178 25.3 119.351 25.258 119.509 25.174C119.673 25.09 119.81 24.9593 119.922 24.782L120.594 25.174C120.45 25.454 120.237 25.671 119.957 25.825C119.682 25.9743 119.362 26.049 118.998 26.049ZM124.046 26L122.695 24.208L123.409 23.767L125.075 26H124.046ZM121.365 26V22.262H122.24V26H121.365ZM121.981 24.502V23.774H123.248V24.502H121.981ZM123.493 24.236L122.674 24.138L124.046 22.262H124.984L123.493 24.236ZM125.692 26V22.262H126.567V24.726L128.632 22.262H129.43V26H128.555V23.536L126.497 26H125.692ZM130.607 26V22.262H131.482V24.726L133.547 22.262H134.345V26H133.47V23.536L131.412 26H130.607ZM132.42 21.821C132.047 21.821 131.76 21.7347 131.559 21.562C131.358 21.3847 131.256 21.128 131.251 20.792H131.832C131.837 20.96 131.888 21.093 131.986 21.191C132.089 21.289 132.231 21.338 132.413 21.338C132.59 21.338 132.73 21.289 132.833 21.191C132.94 21.093 132.996 20.96 133.001 20.792H133.596C133.591 21.128 133.486 21.3847 133.281 21.562C133.08 21.7347 132.793 21.821 132.42 21.821Z" fill="white"/>
<path d="M3.93555 36.9424L5.08398 37.0654H5.22754C6.13444 37.0654 6.75423 36.473 7.08691 35.2881H6.49902C5.35059 35.2881 4.45508 35.0557 3.8125 34.5908C3.16992 34.1214 2.61849 33.3604 2.1582 32.3076L1.08496 29.8467C1.00749 29.6644 1.00521 29.5117 1.07812 29.3887C1.1556 29.2611 1.2832 29.1973 1.46094 29.1973H2.90332C3.34082 29.1973 3.64388 29.4046 3.8125 29.8193L4.59863 31.7197C4.83105 32.2712 5.12272 32.6836 5.47363 32.957C5.82454 33.2259 6.28711 33.3604 6.86133 33.3604H7.70215L8.93945 29.833C9.00326 29.637 9.11491 29.4821 9.27441 29.3682C9.43392 29.2542 9.6071 29.1973 9.79395 29.1973H11.1748C11.3525 29.1973 11.4756 29.2474 11.5439 29.3477C11.6123 29.4434 11.6465 29.5299 11.6465 29.6074C11.6465 29.6803 11.6351 29.751 11.6123 29.8193L9.38379 36.1973C9.07389 37.0951 8.60677 37.7878 7.98242 38.2754C7.35807 38.7585 6.48535 39 5.36426 39H3.7168C3.53906 39 3.38639 38.9385 3.25879 38.8154C3.13118 38.6878 3.06738 38.5352 3.06738 38.3574V37.585C3.06738 37.4072 3.12891 37.2568 3.25195 37.1338C3.375 37.0062 3.52995 36.9424 3.7168 36.9424H3.93555ZM13.9744 38.3574V29.8467C13.9744 29.6689 14.0382 29.5163 14.1658 29.3887C14.2934 29.2611 14.4507 29.1973 14.6375 29.1973H15.909C16.0867 29.1973 16.2371 29.2611 16.3602 29.3887C16.4878 29.5163 16.5516 29.6689 16.5516 29.8467V32.9229H21.2547V29.8467C21.2547 29.6689 21.3185 29.5163 21.4461 29.3887C21.5737 29.2611 21.7264 29.1973 21.9041 29.1973H23.1756C23.3624 29.1973 23.5174 29.2611 23.6404 29.3887C23.768 29.5163 23.8318 29.6689 23.8318 29.8467V38.3574C23.8318 38.5352 23.7658 38.6878 23.6336 38.8154C23.506 38.9385 23.3533 39 23.1756 39H21.9041C21.7264 39 21.5737 38.9408 21.4461 38.8223C21.3185 38.6992 21.2547 38.5488 21.2547 38.3711V34.8574H16.5516V38.3711C16.5516 38.5488 16.4878 38.6992 16.3602 38.8223C16.2371 38.9408 16.0867 39 15.909 39H14.6375C14.4598 39 14.3048 38.9385 14.1727 38.8154C14.0405 38.6878 13.9744 38.5352 13.9744 38.3574ZM27.0006 38.3574V29.8467C27.0006 29.6598 27.0621 29.5049 27.1852 29.3818C27.3082 29.2588 27.4632 29.1973 27.65 29.1973H28.8531C29.0309 29.1973 29.1812 29.2588 29.3043 29.3818C29.4319 29.5049 29.4957 29.6553 29.4957 29.833V36.6758L33.3854 29.8467C33.4902 29.6689 33.6337 29.5163 33.816 29.3887C33.9983 29.2611 34.1669 29.1973 34.3219 29.1973H36.3385C36.5162 29.1973 36.6666 29.2611 36.7896 29.3887C36.9127 29.5163 36.9742 29.6689 36.9742 29.8467V38.3574C36.9742 38.5352 36.9104 38.6878 36.7828 38.8154C36.6552 38.9385 36.5025 39 36.3248 39H35.1217C34.9439 39 34.7913 38.9385 34.6637 38.8154C34.5406 38.6878 34.4791 38.5352 34.4791 38.3574V32.0137L30.9107 38.3574C30.8059 38.5352 30.6578 38.6878 30.4664 38.8154C30.275 38.9385 30.0904 39 29.9127 39H27.65C27.4723 39 27.3196 38.9385 27.192 38.8154C27.0644 38.6878 27.0006 38.5352 27.0006 38.3574ZM40.1361 29.8467C40.1361 29.6689 40.1999 29.5163 40.3275 29.3887C40.4551 29.2611 40.6078 29.1973 40.7855 29.1973H46.3432C47.7058 29.1973 48.7107 29.5892 49.3578 30.373C49.7178 30.806 49.8979 31.3597 49.8979 32.0342C49.8979 32.7041 49.5902 33.2897 48.975 33.791C49.85 34.2604 50.2875 34.9896 50.2875 35.9785C50.2875 36.9674 49.9366 37.7194 49.2348 38.2344C48.5375 38.7448 47.6807 39 46.6645 39H40.7855C40.6078 39 40.4551 38.9385 40.3275 38.8154C40.1999 38.6878 40.1361 38.5352 40.1361 38.3574V29.8467ZM42.7133 37.1543H46.6234C46.9743 37.1543 47.2432 37.0495 47.4301 36.8398C47.6169 36.6302 47.7104 36.3431 47.7104 35.9785C47.7104 35.6139 47.6169 35.3268 47.4301 35.1172C47.2432 34.9076 46.9743 34.8027 46.6234 34.8027H42.7133V37.1543ZM42.7133 33.0049H46.3705C46.6576 33.0049 46.8878 32.9206 47.0609 32.752C47.2341 32.5788 47.3207 32.3395 47.3207 32.0342C47.3207 31.7243 47.2341 31.4827 47.0609 31.3096C46.8878 31.1364 46.6576 31.0498 46.3705 31.0498H42.7133V33.0049ZM52.8889 38.3438V29.833C52.8889 29.6553 52.9527 29.5049 53.0803 29.3818C53.2079 29.2588 53.3605 29.1973 53.5383 29.1973H61.4201C61.5979 29.1973 61.7482 29.2611 61.8713 29.3887C61.9989 29.5163 62.0627 29.6689 62.0627 29.8467V30.4893C62.0627 30.667 61.9989 30.8197 61.8713 30.9473C61.7482 31.0703 61.5979 31.1318 61.4201 31.1318H55.466V33.1211H60.593C60.7707 33.1211 60.9211 33.1849 61.0441 33.3125C61.1717 33.4355 61.2355 33.5859 61.2355 33.7637V34.4062C61.2355 34.584 61.1717 34.7367 61.0441 34.8643C60.9211 34.9873 60.7707 35.0488 60.593 35.0488H55.466V37.0654H61.4064C61.5796 37.0654 61.7277 37.127 61.8508 37.25C61.9738 37.373 62.0354 37.5234 62.0354 37.7012V38.3574C62.0354 38.5352 61.9715 38.6878 61.8439 38.8154C61.7163 38.9385 61.5637 39 61.3859 39H53.5383C53.3605 39 53.2079 38.9385 53.0803 38.8154C52.9527 38.6878 52.8889 38.5306 52.8889 38.3438ZM64.5205 38.3574V29.8467C64.5205 29.6689 64.582 29.5163 64.7051 29.3887C64.8281 29.2611 64.9785 29.1973 65.1562 29.1973H70.3721C73.1292 29.1973 74.5078 30.4688 74.5078 33.0117C74.5078 35.5501 73.1292 36.8193 70.3721 36.8193H67.0977V38.3574C67.0977 38.5352 67.0339 38.6878 66.9062 38.8154C66.7832 38.9385 66.6328 39 66.4551 39H65.1699C64.9922 39 64.8395 38.9385 64.7119 38.8154C64.5843 38.6878 64.5205 38.5352 64.5205 38.3574ZM67.0977 34.8848H69.5928C70.3584 34.8848 70.9395 34.7572 71.3359 34.502C71.7324 34.2422 71.9307 33.7454 71.9307 33.0117C71.9307 32.2734 71.7324 31.7767 71.3359 31.5215C70.9395 31.2617 70.3584 31.1318 69.5928 31.1318H67.0977V34.8848ZM77.6766 37.8447C76.8335 37.0381 76.4119 35.7917 76.4119 34.1055C76.4119 32.4147 76.8335 31.166 77.6766 30.3594C78.5242 29.5482 79.7934 29.1426 81.4842 29.1426H83.0086C84.0431 29.1426 84.9568 29.4115 85.7498 29.9492C86.5473 30.487 86.9461 31.223 86.9461 32.1572C86.9461 32.4261 86.8663 32.6198 86.7068 32.7383C86.5473 32.8522 86.3924 32.9092 86.242 32.9092H85.4285C85.0092 32.9092 84.6834 32.6585 84.451 32.1572C84.1137 31.4372 83.5532 31.0771 82.7693 31.0771H81.5525C80.5545 31.0771 79.8777 31.2913 79.5223 31.7197C79.1668 32.1481 78.9891 32.9411 78.9891 34.0986C78.9891 35.2562 79.1668 36.0514 79.5223 36.4844C79.8777 36.9128 80.5545 37.127 81.5525 37.127H82.9129C83.6967 37.127 84.255 36.7669 84.5877 36.0469C84.8201 35.541 85.1482 35.2881 85.5721 35.2881H86.3855C86.5997 35.2881 86.7684 35.3678 86.8914 35.5273C87.019 35.6868 87.0828 35.86 87.0828 36.0469C87.0828 36.9811 86.6863 37.7171 85.8934 38.2549C85.1004 38.7881 84.1867 39.0547 83.1521 39.0547H81.4842C79.7934 39.0547 78.5242 38.6514 77.6766 37.8447ZM89.6158 38.3574V29.8467C89.6158 29.6598 89.6773 29.5049 89.8004 29.3818C89.9234 29.2588 90.0784 29.1973 90.2652 29.1973H91.4684C91.6461 29.1973 91.7965 29.2588 91.9195 29.3818C92.0471 29.5049 92.1109 29.6553 92.1109 29.833V36.6758L96.0006 29.8467C96.1054 29.6689 96.249 29.5163 96.4313 29.3887C96.6135 29.2611 96.7822 29.1973 96.9371 29.1973H98.9537C99.1314 29.1973 99.2818 29.2611 99.4049 29.3887C99.5279 29.5163 99.5895 29.6689 99.5895 29.8467V38.3574C99.5895 38.5352 99.5257 38.6878 99.398 38.8154C99.2704 38.9385 99.1178 39 98.94 39H97.7369C97.5592 39 97.4065 38.9385 97.2789 38.8154C97.1559 38.6878 97.0943 38.5352 97.0943 38.3574V32.0137L93.526 38.3574C93.4212 38.5352 93.273 38.6878 93.0816 38.8154C92.8902 38.9385 92.7057 39 92.5279 39H90.2652C90.0875 39 89.9348 38.9385 89.8072 38.8154C89.6796 38.6878 89.6158 38.5352 89.6158 38.3574ZM101.911 30.4893V29.8467C101.911 29.6598 101.972 29.5049 102.095 29.3818C102.218 29.2588 102.373 29.1973 102.56 29.1973H111.235C111.422 29.1973 111.577 29.2588 111.7 29.3818C111.823 29.5049 111.884 29.6598 111.884 29.8467V30.4893C111.884 30.6761 111.823 30.8311 111.7 30.9541C111.577 31.0726 111.422 31.1318 111.235 31.1318H108.186V38.3711C108.186 38.5488 108.122 38.6992 107.995 38.8223C107.871 38.9408 107.721 39 107.543 39H106.251C106.074 39 105.921 38.9408 105.793 38.8223C105.67 38.6992 105.609 38.5488 105.609 38.3711V31.1318H102.56C102.373 31.1318 102.218 31.0726 102.095 30.9541C101.972 30.8311 101.911 30.6761 101.911 30.4893ZM114.205 38.3438V29.833C114.205 29.6553 114.269 29.5049 114.397 29.3818C114.524 29.2588 114.677 29.1973 114.855 29.1973H122.737C122.914 29.1973 123.065 29.2611 123.188 29.3887C123.315 29.5163 123.379 29.6689 123.379 29.8467V30.4893C123.379 30.667 123.315 30.8197 123.188 30.9473C123.065 31.0703 122.914 31.1318 122.737 31.1318H116.782V33.1211H121.909C122.087 33.1211 122.238 33.1849 122.361 33.3125C122.488 33.4355 122.552 33.5859 122.552 33.7637V34.4062C122.552 34.584 122.488 34.7367 122.361 34.8643C122.238 34.9873 122.087 35.0488 121.909 35.0488H116.782V37.0654H122.723C122.896 37.0654 123.044 37.127 123.167 37.25C123.29 37.373 123.352 37.5234 123.352 37.7012V38.3574C123.352 38.5352 123.288 38.6878 123.16 38.8154C123.033 38.9385 122.88 39 122.702 39H114.855C114.677 39 114.524 38.9385 114.397 38.8154C114.269 38.6878 114.205 38.5306 114.205 38.3438ZM124.996 30.4893V29.8467C124.996 29.6598 125.058 29.5049 125.181 29.3818C125.304 29.2588 125.459 29.1973 125.646 29.1973H134.32C134.507 29.1973 134.662 29.2588 134.785 29.3818C134.908 29.5049 134.97 29.6598 134.97 29.8467V30.4893C134.97 30.6761 134.908 30.8311 134.785 30.9541C134.662 31.0726 134.507 31.1318 134.32 31.1318H131.271V38.3711C131.271 38.5488 131.208 38.6992 131.08 38.8223C130.957 38.9408 130.807 39 130.629 39H129.337C129.159 39 129.007 38.9408 128.879 38.8223C128.756 38.6992 128.694 38.5488 128.694 38.3711V31.1318H125.646C125.459 31.1318 125.304 31.0726 125.181 30.9541C125.058 30.8311 124.996 30.6761 124.996 30.4893Z" fill="white"/>
</svg>
