<svg width="24" height="24" viewBox="0 0 24 24" fill="none" xmlns="http://www.w3.org/2000/svg">
<path d="M22.093 5.09308C22.093 4.649 21.9165 4.22311 21.6025 3.90909C21.2885 3.59508 20.8626 3.41867 20.4185 3.41867H19.6818C19.6077 3.41804 19.5349 3.39848 19.4704 3.36185C19.406 3.32522 19.3519 3.27274 19.3134 3.20937C19.2783 3.14493 19.2261 3.09135 19.1627 3.05445C19.0992 3.01755 19.0268 2.99874 18.9534 3.00007H16.4418C16.3308 3.00007 16.2243 3.04417 16.1458 3.12267C16.0673 3.20117 16.0232 3.30765 16.0232 3.41867V10.0326C16.0238 10.0741 16.0367 10.1144 16.0602 10.1486C16.0838 10.1827 16.117 10.2091 16.1555 10.2243C16.1941 10.2396 16.2363 10.243 16.2769 10.2342C16.3174 10.2254 16.3544 10.2048 16.3832 10.1749L17.5469 9.01121C17.5664 8.99095 17.5899 8.97484 17.6157 8.96383C17.6416 8.95283 17.6695 8.94715 17.6976 8.94715C17.7258 8.94715 17.7536 8.95283 17.7795 8.96383C17.8054 8.97484 17.8288 8.99095 17.8483 9.01121L19.012 10.1749C19.0408 10.2048 19.0778 10.2254 19.1184 10.2342C19.1589 10.243 19.2011 10.2396 19.2397 10.2243C19.2783 10.2091 19.3114 10.1827 19.335 10.1486C19.3586 10.1144 19.3715 10.0741 19.372 10.0326V5.51168C19.372 5.40066 19.4161 5.29419 19.4946 5.21569C19.5731 5.13718 19.6796 5.09308 19.7906 5.09308H19.9999C20.111 5.09308 20.2174 5.13718 20.2959 5.21569C20.3744 5.29419 20.4185 5.40066 20.4185 5.51168V16.3954C20.4185 16.5064 20.3744 16.6129 20.2959 16.6914C20.2174 16.7699 20.111 16.814 19.9999 16.814H14.5581C14.1733 16.8095 13.7899 16.8603 13.4195 16.9647C13.357 16.9816 13.2915 16.9844 13.2277 16.9728C13.164 16.9612 13.1037 16.9356 13.0511 16.8977C12.9996 16.8583 12.9578 16.8076 12.9287 16.7496C12.8997 16.6916 12.8843 16.6277 12.8837 16.5628V7.1861C12.8837 5.46145 13.7962 5.16006 14.3823 5.10145C14.4874 5.09302 14.5855 5.04522 14.6569 4.96761C14.7283 4.89 14.7677 4.7883 14.7674 4.68285V3.84564C14.7676 3.78774 14.7558 3.73042 14.7327 3.67732C14.7096 3.62422 14.6757 3.57649 14.6332 3.53715C14.5907 3.4978 14.5405 3.46771 14.4858 3.44875C14.4311 3.4298 14.373 3.42241 14.3153 3.42704C13.583 3.45304 12.8822 3.73102 12.3311 4.21401C12.2528 4.28403 12.1515 4.32274 12.0465 4.32274C11.9414 4.32274 11.8401 4.28403 11.7618 4.21401C11.1488 3.67337 10.3517 3.38867 9.53486 3.41867H3.67441C3.23033 3.41867 2.80444 3.59508 2.49042 3.90909C2.17641 4.22311 2 4.649 2 5.09308L2 16.814C2 17.2581 2.17641 17.6839 2.49042 17.998C2.80444 18.312 3.23033 18.4884 3.67441 18.4884H9.53486C10.7404 18.4884 11.2093 18.9572 11.2093 20.1628C11.2093 20.3848 11.2975 20.5978 11.4545 20.7548C11.6115 20.9118 11.8244 21 12.0465 21C12.2685 21 12.4815 20.9118 12.6385 20.7548C12.7955 20.5978 12.8837 20.3848 12.8837 20.1628C12.8837 18.9572 13.3525 18.4884 14.5581 18.4884H20.4185C20.8626 18.4884 21.2885 18.312 21.6025 17.998C21.9165 17.6839 22.093 17.2581 22.093 16.814V5.09308ZM9.53486 16.814H4.09302C3.982 16.814 3.87552 16.7699 3.79702 16.6914C3.71852 16.6129 3.67441 16.5064 3.67441 16.3954V5.51168C3.67441 5.40066 3.71852 5.29419 3.79702 5.21569C3.87552 5.13718 3.982 5.09308 4.09302 5.09308H9.53486C10.9916 5.09308 11.2093 6.40749 11.2093 7.1861V16.5628C11.2086 16.6277 11.1932 16.6916 11.1642 16.7496C11.1352 16.8076 11.0933 16.8583 11.0418 16.8977C10.9893 16.9356 10.9289 16.9612 10.8652 16.9728C10.8015 16.9844 10.736 16.9816 10.6735 16.9647C10.3031 16.8603 9.91964 16.8095 9.53486 16.814Z" fill="#1B1B21"/>
</svg>
