<svg width="24" height="24" viewBox="0 0 24 24" fill="none" xmlns="http://www.w3.org/2000/svg">
<path d="M23.5 5.50001V6.25001C23.5 6.34947 23.4605 6.44485 23.3902 6.51518C23.3198 6.5855 23.2245 6.62501 23.125 6.62501H22V7.18751C22 7.49815 21.7481 7.75001 21.4375 7.75001H3.0625C2.75186 7.75001 2.5 7.49815 2.5 7.18751V6.62501H1.375C1.27554 6.62501 1.18016 6.5855 1.10983 6.51518C1.03951 6.44485 1 6.34947 1 6.25001V5.50001C1 5.42582 1.02201 5.3533 1.06323 5.29162C1.10446 5.22994 1.16306 5.18188 1.23161 5.15351L12.1066 1.02851C12.1984 0.990496 12.3016 0.990496 12.3934 1.02851L23.2684 5.15351C23.3369 5.18188 23.3955 5.22994 23.4368 5.29162C23.478 5.3533 23.5 5.42582 23.5 5.50001ZM22.375 19.75H2.125C1.50367 19.75 1 20.2537 1 20.875V21.625C1 21.7245 1.03951 21.8199 1.10983 21.8902C1.18016 21.9605 1.27554 22 1.375 22H23.125C23.2245 22 23.3198 21.9605 23.3902 21.8902C23.4605 21.8199 23.5 21.7245 23.5 21.625V20.875C23.5 20.2537 22.9963 19.75 22.375 19.75ZM4.75 8.50001V17.5H3.0625C2.75186 17.5 2.5 17.7519 2.5 18.0625V19H22V18.0625C22 17.7519 21.7481 17.5 21.4375 17.5H19.75V8.50001H16.75V17.5H13.75V8.50001H10.75V17.5H7.75V8.50001H4.75Z" fill="#1B1B21"/>
</svg>
